<?xml version="1.0" standalone="no"?>
<!DOCTYPE svg PUBLIC "-//W3C//DTD SVG 20010904//EN"
 "http://www.w3.org/TR/2001/REC-SVG-20010904/DTD/svg10.dtd">
<svg version="1.0" xmlns="http://www.w3.org/2000/svg"
 width="700.000000pt" height="700.000000pt" viewBox="0 0 700.000000 700.000000"
 preserveAspectRatio="xMidYMid meet">
<metadata>
Created by potrace 1.11, written by Peter Selinger 2001-2013
</metadata>
<g transform="translate(0.000000,700.000000) scale(0.100000,-0.100000)"
fill="#000000" stroke="none">
<path d="M3060 6859 c-203 -27 -386 -68 -595 -135 -114 -37 -265 -89 -300
-104 -11 -5 -65 -27 -119 -50 -149 -62 -296 -135 -445 -222 l-134 -77 -30 29
c-46 45 -106 64 -177 57 -111 -10 -192 -102 -191 -218 0 -34 7 -71 16 -90 19
-36 26 -27 -90 -124 -484 -404 -786 -874 -789 -1230 0 -95 10 -209 29 -327 4
-24 9 -54 12 -68 12 -77 31 -183 39 -225 4 -25 24 -117 40 -190 2 -11 7 -33
10 -50 8 -46 81 -362 125 -545 23 -91 42 -172 44 -180 2 -8 13 -51 25 -95 12
-44 32 -123 46 -175 43 -173 62 -248 68 -267 5 -16 -2 -21 -56 -32 -205 -41
-351 -200 -350 -380 0 -62 19 -155 63 -307 29 -101 102 -322 119 -359 5 -11
30 -69 56 -130 106 -248 185 -354 309 -416 148 -72 340 -76 483 -9 l47 22 20
-28 c144 -200 237 -302 377 -413 58 -45 114 -88 125 -94 126 -72 199 -111 258
-137 67 -30 249 -94 297 -104 12 -3 41 -10 63 -15 39 -9 64 -14 175 -31 60
-10 421 -6 485 5 34 6 199 41 230 49 52 14 122 35 245 73 527 163 487 154 575
131 153 -41 293 -42 395 -2 62 24 142 78 182 122 18 20 37 38 41 39 45 10 218
73 275 99 285 132 485 381 546 677 14 67 15 263 2 323 -3 16 -8 39 -11 52 -15
83 -62 230 -101 319 -8 17 -14 34 -14 37 0 4 -21 51 -46 104 -208 437 -257
615 -214 773 10 35 43 151 74 257 70 238 105 382 126 507 18 114 20 130 26
205 3 41 9 79 14 84 5 4 104 41 222 81 208 70 322 114 423 160 28 12 75 33
105 46 30 13 81 38 113 56 31 18 60 32 63 32 22 0 241 151 316 219 79 71 163
209 182 297 15 69 16 83 17 145 3 288 -193 588 -507 776 -136 82 -338 158
-469 178 -52 8 -119 17 -160 21 -47 5 -329 6 -395 1 -57 -4 -158 -15 -190 -21
-14 -2 -45 -7 -70 -10 -25 -4 -63 -10 -85 -15 -22 -5 -47 -10 -56 -10 -8 0
-41 36 -73 80 -300 419 -684 695 -1111 799 -44 11 -100 22 -125 25 -25 3 -56
9 -70 12 -64 15 -399 11 -530 -7z"/>
</g>
</svg>
