<?xml version="1.0" encoding="UTF-8" standalone="no"?>
<!DOCTYPE svg PUBLIC "-//W3C//DTD SVG 1.1//EN" "http://www.w3.org/Graphics/SVG/1.1/DTD/svg11.dtd">
<svg width="100%" height="100%" viewBox="0 0 2481 3508" version="1.1" xmlns="http://www.w3.org/2000/svg" xmlns:xlink="http://www.w3.org/1999/xlink" xml:space="preserve" xmlns:serif="http://www.serif.com/" style="fill-rule:evenodd;clip-rule:evenodd;stroke-linejoin:round;stroke-miterlimit:2;">
    <g transform="matrix(2.76682,0,0,2.76682,177.6,-1736.29)">
        <g>
            <g transform="matrix(1.41764,0,0,1.41764,-1512.3,-812.068)">
                <path d="M1240.93,1340.79L1241.01,1340.69C1267.93,1313.45 1316.9,1281.96 1366.32,1262.77C1380.13,1257.41 1393.98,1253.03 1407.41,1249.95C1407.61,1249.9 1407.78,1249.76 1407.85,1249.56C1407.93,1249.36 1407.89,1249.14 1407.77,1248.97C1388.44,1222.88 1367.24,1210.5 1345.37,1206.64C1319.65,1202.1 1293.13,1209.3 1267.89,1219.3C1238.84,1230.82 1211.87,1249.72 1193.12,1269.66C1176.85,1286.96 1166.6,1304.79 1168.08,1319.01C1170.74,1344.54 1183.43,1390.09 1190.19,1413.78C1190.26,1414.03 1190.48,1414.21 1190.73,1414.23C1190.99,1414.26 1191.24,1414.12 1191.35,1413.89C1199.51,1397.44 1208.85,1378.63 1223.32,1360.22C1228.46,1353.67 1234.26,1347.18 1240.86,1340.87L1240.93,1340.79Z" style="fill:rgb(133,203,211);"/>
            </g>
            <g transform="matrix(1.41764,0,0,1.41764,-1911.37,-1664.17)">
                <path d="M1449.75,2069.19C1449.68,2069.2 1449.62,2069.21 1449.55,2069.2C1449.3,2069.18 1449.08,2069.02 1449,2068.78C1447.45,2064.07 1446.34,2060.07 1445.9,2057.52C1444.63,2050.13 1449.73,2044.76 1455.87,2042.3C1461.65,2039.99 1468.54,2039.95 1472.52,2043.64C1472.61,2043.73 1472.68,2043.84 1472.7,2043.97C1473.88,2049.29 1475.03,2054.69 1476.23,2060.11C1476.29,2060.36 1476.19,2060.61 1475.99,2060.76C1475.79,2060.9 1475.52,2060.91 1475.3,2060.79C1474.52,2060.32 1473.72,2059.93 1472.89,2059.62C1468.72,2058.08 1464.33,2058.16 1460.41,2059.61C1457.72,2060.6 1455.32,2062.23 1453.3,2064.42C1452.58,2065.19 1451.91,2066.03 1451.3,2066.93C1451.98,2066.09 1452.73,2065.34 1453.54,2064.68C1455.7,2062.92 1458.27,2061.94 1460.91,2061.5C1464.37,2060.93 1467.9,2061.7 1471.22,2063.41C1471.72,2063.67 1472.22,2063.94 1472.71,2064.25C1474.21,2064.44 1476.18,2065.3 1477.71,2067.01L1477.86,2067.28C1480.43,2078.33 1483.36,2089.35 1487.29,2099.85C1488.51,2103.11 1489.8,2106.32 1491.29,2109.43C1491.4,2109.66 1491.51,2109.89 1491.62,2110.12C1491.74,2110.37 1491.69,2110.67 1491.48,2110.85C1489.41,2112.77 1486.04,2113.77 1482.57,2114.05C1477.85,2114.43 1472.7,2113.42 1468.95,2110.35C1465.61,2107.6 1461.58,2099.88 1457.71,2091.22C1454.59,2084.22 1451.64,2076.6 1449.45,2070.13C1449.4,2069.96 1449.41,2069.78 1449.5,2069.63C1449.58,2069.48 1449.66,2069.33 1449.75,2069.19Z" style="fill:rgb(247,194,181);"/>
            </g>
            <g transform="matrix(1.41764,0,0,1.41764,-1512.3,-812.068)">
                <path d="M1212.91,1484.34C1210.5,1479.14 1211.6,1481.53 1210.4,1478.43C1204.44,1462.95 1199.81,1446.77 1194.68,1431.62C1194.66,1431.55 1194.64,1431.47 1194.65,1431.39C1194.7,1430.43 1194.6,1429.36 1194.28,1428.18C1193.94,1426.88 1193.26,1424.52 1192.35,1421.31L1192.4,1420.84C1201.71,1403.89 1212.1,1383.85 1228.47,1364.41C1242.03,1348.32 1259.71,1332.63 1284.54,1319.6C1289.52,1316.92 1304.29,1307.6 1325.03,1303C1329.14,1302.08 1337.94,1298.48 1346.53,1296.73C1356.28,1294.74 1365.77,1294.64 1367.86,1294.45C1379.51,1293.37 1390.21,1293.42 1399.35,1294.43C1399.43,1294.44 1399.51,1294.47 1399.58,1294.51C1400.39,1294.7 1404.17,1295.05 1406.58,1295.5C1413.4,1296.78 1419.05,1298.7 1423.19,1301.16L1423.42,1301.4C1430.68,1314.81 1433.1,1328.24 1432.5,1343.8C1432.18,1351.97 1430.73,1360.68 1429.21,1370.38C1427.35,1382.31 1425.39,1395.67 1422.43,1410.88C1421.44,1415.6 1422.33,1420.69 1424.13,1426.23C1425.96,1431.86 1428.72,1437.93 1431.45,1444.53C1434.17,1451.09 1436.5,1458.28 1438.17,1465.77C1440.37,1475.69 1440.24,1486.01 1437.46,1496.95C1437.2,1498.01 1436.98,1499.09 1436.68,1500.17C1434.29,1510.07 1429.49,1516.98 1424.08,1521.81C1416.2,1528.85 1407.33,1531.76 1403.1,1533.2C1400.35,1534.14 1398.79,1535.19 1398.41,1535.71C1397.5,1536.94 1396.14,1539.44 1393.4,1541.59C1391.79,1542.86 1389.71,1544.05 1386.93,1544.73C1384.05,1545.44 1381.53,1545.66 1379.33,1545.42C1375.09,1544.96 1372.03,1543.29 1369.65,1542.62C1368.12,1542.19 1366.76,1542.11 1365.54,1542.29C1354.97,1543.81 1341.38,1547.5 1328.85,1550.11C1323.49,1551.23 1318.34,1552.14 1313.75,1552.54C1306.33,1553.19 1298.76,1552.8 1291.24,1551.78C1286.3,1551.11 1281.38,1550.17 1276.57,1548.82C1264.58,1545.46 1253.27,1539.8 1243.95,1531.8C1234.26,1523.61 1227.29,1513.43 1221.43,1502.47C1219.94,1499.68 1218.44,1496.88 1217.06,1493.99C1215.61,1490.96 1214.24,1487.88 1212.93,1484.75C1212.9,1484.68 1212.89,1484.6 1212.89,1484.52C1212.89,1484.45 1212.89,1484.39 1212.91,1484.34Z" style="fill:rgb(247,194,181);"/>
            </g>
            <g transform="matrix(1.41764,0,0,1.41764,-1512.3,-812.068)">
                <path d="M1441.08,1348.4C1441.08,1348.61 1441.18,1348.81 1441.35,1348.92C1441.52,1349.04 1441.74,1349.06 1441.94,1348.99C1450.8,1345.4 1466.66,1338.53 1480.88,1330.49C1491.1,1324.71 1500.49,1318.41 1505.21,1311.96C1513.31,1301.11 1509.58,1287.44 1499.76,1276.36C1491.38,1266.91 1478.52,1259.13 1462.96,1256.44C1430.51,1250.49 1387.12,1261.07 1346.02,1278.25C1329.53,1285.15 1313.4,1293.12 1298.49,1301.59C1298.2,1301.75 1298.09,1302.11 1298.24,1302.41C1298.39,1302.71 1298.74,1302.84 1299.05,1302.7C1304.4,1300.39 1309.77,1298.34 1315.12,1296.56C1327.76,1292.35 1340.27,1289.57 1352.11,1287.93C1365.9,1286.03 1378.82,1285.69 1390.1,1286.57C1406.58,1287.86 1419.56,1290.87 1426.6,1296.79C1427.48,1297.52 1428.21,1299.1 1428.62,1299.75C1437.12,1313.36 1440.73,1327.39 1441.06,1343.88C1441.09,1345.36 1441.09,1346.87 1441.08,1348.4Z" style="fill:rgb(60,155,166);"/>
            </g>
            <g transform="matrix(3.86599,0,0,3.86599,-4881.44,-4938.25)">
                <g>
                    <g transform="matrix(1,0,0,1,1294.39,1689.23)">
                        <g transform="matrix(45.833,0,0,45.833,0,0)">
                            <path d="M0.071,0L0.233,0C0.256,0 0.272,-0.01 0.272,-0.034L0.272,-0.068C0.272,-0.092 0.256,-0.102 0.233,-0.102L0.212,-0.102L0.212,-0.698C0.212,-0.721 0.193,-0.74 0.169,-0.74L0.071,-0.74C0.048,-0.74 0.032,-0.73 0.032,-0.706L0.032,-0.672C0.032,-0.648 0.048,-0.638 0.071,-0.638L0.093,-0.638L0.093,-0.102L0.071,-0.102C0.048,-0.102 0.032,-0.092 0.032,-0.068L0.032,-0.034C0.032,-0.01 0.048,0 0.071,0Z" style="fill:rgb(60,155,166);fill-rule:nonzero;"/>
                        </g>
                        <g transform="matrix(45.833,0,0,45.833,13.9332,0)">
                            <path d="M0.548,-0.102L0.526,-0.102L0.526,-0.458C0.526,-0.481 0.509,-0.5 0.485,-0.5L0.386,-0.5C0.363,-0.5 0.347,-0.49 0.347,-0.466L0.347,-0.432C0.347,-0.408 0.363,-0.398 0.386,-0.398L0.407,-0.398L0.407,-0.237C0.407,-0.16 0.351,-0.09 0.286,-0.09C0.227,-0.09 0.208,-0.126 0.208,-0.232L0.208,-0.458C0.208,-0.482 0.19,-0.5 0.166,-0.5L0.068,-0.5C0.044,-0.5 0.029,-0.49 0.029,-0.466L0.029,-0.432C0.029,-0.408 0.044,-0.398 0.068,-0.398L0.089,-0.398L0.089,-0.202C0.089,-0.063 0.145,0.01 0.254,0.01C0.318,0.01 0.38,-0.037 0.407,-0.104L0.407,-0.042C0.407,-0.019 0.426,0 0.45,0L0.548,0C0.571,0 0.587,-0.01 0.587,-0.034L0.587,-0.068C0.587,-0.092 0.571,-0.102 0.548,-0.102Z" style="fill:rgb(60,155,166);fill-rule:nonzero;"/>
                        </g>
                    </g>
                    <g transform="matrix(1,0,0,1,1336.65,1689.23)">
                        <g transform="matrix(45.833,0,0,45.833,0,0)">
                            <path d="M0.611,-0.028L0.611,-0.083C0.611,-0.099 0.599,-0.111 0.583,-0.111L0.389,-0.111L0.389,-0.667L0.472,-0.667C0.488,-0.667 0.5,-0.679 0.5,-0.694L0.5,-0.75C0.5,-0.766 0.488,-0.778 0.472,-0.778L0.194,-0.778C0.179,-0.778 0.167,-0.766 0.167,-0.75L0.167,-0.694C0.167,-0.679 0.179,-0.667 0.194,-0.667L0.278,-0.667L0.278,-0.111L0.083,-0.111C0.068,-0.111 0.056,-0.099 0.056,-0.083L0.056,-0.028C0.056,-0.012 0.068,0 0.083,0L0.583,0C0.599,0 0.611,-0.012 0.611,-0.028Z" style="fill-rule:nonzero;"/>
                        </g>
                        <g transform="matrix(45.833,0,0,45.833,30.5706,0)">
                            <path d="M0.611,-0.139L0.611,-0.639C0.611,-0.654 0.599,-0.667 0.583,-0.667L0.528,-0.667C0.512,-0.667 0.5,-0.654 0.5,-0.639L0.5,-0.139C0.5,-0.123 0.512,-0.111 0.528,-0.111L0.583,-0.111C0.599,-0.111 0.611,-0.123 0.611,-0.139ZM0.5,-0.028L0.5,-0.083C0.5,-0.099 0.488,-0.111 0.472,-0.111L0.167,-0.111L0.167,-0.667L0.472,-0.667C0.488,-0.667 0.5,-0.679 0.5,-0.694L0.5,-0.75C0.5,-0.766 0.488,-0.778 0.472,-0.778L0.083,-0.778C0.068,-0.778 0.056,-0.766 0.056,-0.75L0.056,-0.028C0.056,-0.012 0.068,0 0.083,0L0.472,0C0.488,0 0.5,-0.012 0.5,-0.028Z" style="fill-rule:nonzero;"/>
                        </g>
                        <g transform="matrix(45.833,0,0,45.833,61.1412,0)">
                            <path d="M0.611,-0.583L0.611,-0.639C0.611,-0.654 0.599,-0.667 0.583,-0.667L0.528,-0.667C0.512,-0.667 0.5,-0.654 0.5,-0.639L0.5,-0.583C0.5,-0.568 0.512,-0.556 0.528,-0.556L0.583,-0.556C0.599,-0.556 0.611,-0.568 0.611,-0.583L0.611,-0.583ZM0.5,-0.694L0.5,-0.75C0.5,-0.766 0.488,-0.778 0.472,-0.778L0.194,-0.778C0.179,-0.778 0.167,-0.766 0.167,-0.75L0.167,-0.694C0.167,-0.679 0.179,-0.667 0.194,-0.667L0.472,-0.667C0.488,-0.667 0.5,-0.679 0.5,-0.694L0.5,-0.694ZM0.611,-0.139L0.611,-0.306C0.611,-0.321 0.599,-0.333 0.583,-0.333L0.528,-0.333C0.512,-0.333 0.5,-0.321 0.5,-0.306L0.5,-0.139C0.5,-0.123 0.512,-0.111 0.528,-0.111L0.583,-0.111C0.599,-0.111 0.611,-0.123 0.611,-0.139ZM0.5,-0.361L0.5,-0.417C0.5,-0.432 0.488,-0.444 0.472,-0.444L0.194,-0.444C0.179,-0.444 0.167,-0.432 0.167,-0.417L0.167,-0.361C0.167,-0.346 0.179,-0.333 0.194,-0.333L0.472,-0.333C0.488,-0.333 0.5,-0.346 0.5,-0.361ZM0.167,-0.472L0.167,-0.639C0.167,-0.654 0.154,-0.667 0.139,-0.667L0.083,-0.667C0.068,-0.667 0.056,-0.654 0.056,-0.639L0.056,-0.472C0.056,-0.457 0.068,-0.444 0.083,-0.444L0.139,-0.444C0.154,-0.444 0.167,-0.457 0.167,-0.472ZM0.5,-0.028L0.5,-0.083C0.5,-0.099 0.488,-0.111 0.472,-0.111L0.194,-0.111C0.179,-0.111 0.167,-0.099 0.167,-0.083L0.167,-0.028C0.167,-0.012 0.179,0 0.194,0L0.472,0C0.488,0 0.5,-0.012 0.5,-0.028ZM0.167,-0.139L0.167,-0.194C0.167,-0.21 0.154,-0.222 0.139,-0.222L0.083,-0.222C0.068,-0.222 0.056,-0.21 0.056,-0.194L0.056,-0.139C0.056,-0.123 0.068,-0.111 0.083,-0.111L0.139,-0.111C0.154,-0.111 0.167,-0.123 0.167,-0.139L0.167,-0.139Z" style="fill-rule:nonzero;"/>
                        </g>
                    </g>
                </g>
            </g>
            <g transform="matrix(1.26106,0,0,1.26106,-920.809,-1386.84)">
                <g transform="matrix(68.9108,-19.246,19.246,68.9108,1015.07,1878.93)">
                    <path d="M0.098,-0.721C0.098,-0.727 0.1,-0.732 0.103,-0.736C0.108,-0.74 0.113,-0.743 0.12,-0.743L0.268,-0.743C0.274,-0.743 0.279,-0.741 0.284,-0.737C0.289,-0.733 0.291,-0.727 0.291,-0.721L0.291,-0.177L0.566,-0.177C0.572,-0.177 0.577,-0.175 0.582,-0.171C0.586,-0.167 0.588,-0.162 0.588,-0.155L0.588,-0.023C0.588,-0.017 0.586,-0.012 0.582,-0.007C0.578,-0.002 0.573,0 0.566,0L0.119,0C0.105,0 0.098,-0.007 0.098,-0.022L0.098,-0.721Z" style="fill:rgb(60,155,166);fill-rule:nonzero;"/>
                </g>
                <g transform="matrix(68.9108,-19.246,19.246,68.9108,1015.07,1878.93)">
                    <path d="M0.374,-0.26L0.566,-0.26C0.594,-0.26 0.618,-0.251 0.638,-0.232C0.659,-0.213 0.671,-0.188 0.671,-0.154L0.671,-0.023C0.671,0.001 0.664,0.024 0.647,0.044C0.628,0.069 0.601,0.083 0.566,0.083L0.119,0.083C0.085,0.083 0.061,0.07 0.044,0.053C0.027,0.036 0.014,0.012 0.014,-0.022L0.014,-0.721C0.014,-0.748 0.024,-0.772 0.042,-0.792C0.061,-0.813 0.087,-0.826 0.12,-0.826L0.268,-0.826C0.293,-0.826 0.316,-0.818 0.337,-0.801C0.361,-0.78 0.374,-0.754 0.374,-0.72L0.374,-0.26ZM0.098,-0.72C0.098,-0.726 0.099,-0.732 0.104,-0.736C0.107,-0.74 0.113,-0.742 0.12,-0.742L0.268,-0.742C0.274,-0.742 0.279,-0.741 0.284,-0.736C0.289,-0.732 0.291,-0.727 0.291,-0.72L0.291,-0.177L0.566,-0.177C0.572,-0.177 0.577,-0.175 0.582,-0.171C0.586,-0.167 0.588,-0.162 0.588,-0.154L0.588,-0.023C0.588,-0.017 0.586,-0.012 0.582,-0.007C0.578,-0.002 0.573,0 0.566,0L0.119,0C0.105,0 0.098,-0.007 0.098,-0.022L0.098,-0.72Z"/>
                </g>
            </g>
            <g transform="matrix(1.41764,0,0,1.41764,-1126.14,-1664.17)">
                <path d="M1079.16,1894.26C1079.16,1894.26 1095.07,1916.21 1086.7,1942.97C1074.87,1980.86 1030.5,2029.35 1026.05,2032.5C1036.27,2030.46 1048.46,2024.96 1063.33,2014.78C1055.37,2023.7 1045.81,2030.53 1034.75,2035.37C1052.03,2033.18 1070.55,2025.06 1090.69,2009.25C1082.87,2019.47 1069.03,2030.12 1045.83,2041.43C1062.51,2038.99 1081.99,2031.02 1109.22,2013.42C1107.77,2025.12 1104.47,2032.56 1102.3,2037.71C1102.3,2037.71 1124.28,2020.51 1133.33,1989.74C1142.38,1958.96 1143.39,1945.89 1139.77,1926.98C1136.15,1908.07 1129.71,1893.59 1129.71,1893.59L1079.16,1894.26Z" style="fill:rgb(255,228,173);"/>
            </g>
            <g transform="matrix(1.41764,0,0,1.41764,-1126.14,-1664.17)">
                <path d="M938.888,2084.39L917.848,2022.84C917.848,2022.84 937.084,1984.71 953.604,1964.8C984.149,1927.98 1027.1,1912.3 1027.1,1912.3C1027.1,1912.3 1029.54,1914.99 1033.07,1926.12C1034,1929.05 1032.58,1935.09 1032.58,1935.09C1030.95,1928.08 1028.32,1922.62 1024.05,1919.65C1024.05,1919.65 1025.82,1951.83 1014.88,1969.21C1003.94,1986.59 983.502,2011.21 983.502,2011.21C987.936,1999.21 985.916,1991.19 979.64,1985.78C979.8,1997.93 975.596,2010.38 967.243,2019.79C968.227,2014.52 969.819,2007.21 964.752,2002.5C964.752,2002.5 957.112,2020.38 950.192,2035.02C943.273,2049.66 938.888,2084.39 938.888,2084.39Z" style="fill:rgb(251,191,69);"/>
            </g>
            <g transform="matrix(1.41764,0,0,1.41764,-1126.14,-1664.17)">
                <path d="M1139.04,1967.87C1137.7,1974.15 1135.82,1981.27 1133.33,1989.74C1124.28,2020.51 1102.3,2037.71 1102.3,2037.71C1104.47,2032.56 1107.77,2025.12 1109.22,2013.42C1081.99,2031.02 1062.51,2038.99 1045.83,2041.43C1069.03,2030.12 1082.87,2019.47 1090.69,2009.25C1070.55,2025.06 1052.03,2033.18 1034.75,2035.37C1045.81,2030.53 1055.37,2023.7 1063.33,2014.78C1048.46,2024.96 1036.27,2030.46 1026.05,2032.5C1029.09,2030.34 1050.84,2006.95 1068.05,1980.25L1071.23,1979.9C1078.94,1978.49 1086.4,1975.88 1096.8,1970.19C1098.55,1973.83 1099.53,1977.2 1100.05,1980.39C1106.25,1979.61 1111.2,1975.32 1114.9,1971.5L1117.42,1981.26C1124.42,1978.23 1130.19,1973.82 1134.93,1968.26L1139.04,1967.87Z" style="fill:rgb(251,191,69);"/>
            </g>
            <g transform="matrix(1.41764,0,0,1.41764,-1126.14,-1664.17)">
                <path d="M1079.82,1959.76C1082.64,1954.05 1085.01,1948.4 1086.7,1942.97C1095.07,1916.21 1079.16,1894.26 1079.16,1894.26L1129.71,1893.59C1129.71,1893.59 1136.15,1908.07 1139.77,1926.98C1141.15,1934.19 1141.86,1940.56 1141.7,1947.38C1135.78,1955.19 1128.94,1961.22 1120.83,1963.65L1120.13,1955.68C1115.9,1959.11 1111.4,1961.37 1106.62,1962.44C1106.31,1959.47 1105.5,1956.2 1104.06,1952.55C1098.05,1957.9 1089.16,1960.8 1079.18,1961.97C1079.18,1961.97 1079.42,1961.16 1079.82,1959.76Z" style="fill:rgb(251,191,69);"/>
            </g>
            <g transform="matrix(1.41764,0,0,1.41764,-1512.3,-812.068)">
                <path d="M1223.73,1230.26C1236.42,1222.32 1250.19,1215.4 1264.4,1210.15C1291.38,1200.17 1319.7,1193.43 1346.84,1198.88C1370.57,1203.63 1393.52,1217.57 1413.82,1247.06C1413.99,1247.31 1414.13,1247.58 1414.23,1247.85C1432.43,1244.25 1449.68,1243.18 1464.78,1245.42C1477.62,1247.4 1489.04,1252.27 1498.1,1258.87C1505.23,1264.07 1510.92,1270.33 1514.76,1276.98C1522.74,1290.79 1523.09,1306.17 1513.35,1318.28C1507.6,1325.3 1496.82,1332.29 1484.79,1338.04C1468.55,1345.8 1450.3,1351.62 1441.53,1354.24C1441.24,1359.91 1440.59,1365.86 1439.44,1372.13C1437.22,1384.19 1433.1,1397.33 1428.61,1412.42C1426.29,1420.62 1429.91,1430.78 1434.8,1442.07C1436.49,1445.99 1438.48,1449.95 1440.37,1454.07C1443.16,1460.14 1445.84,1466.41 1447.73,1473.1C1449.9,1480.78 1451.15,1488.83 1450.21,1497.41C1449.99,1499.46 1449.51,1501.5 1449,1503.58C1445.13,1516.05 1438.39,1524.5 1431.06,1530.21C1422.9,1536.56 1414.2,1539.54 1408.56,1541.12C1406.73,1541.63 1404.96,1542.71 1404.28,1542.55C1402.99,1544.16 1401.11,1546.36 1398.29,1548.29C1395.81,1549.99 1392.65,1551.55 1388.53,1552.3C1384.69,1552.99 1381.41,1552.9 1378.54,1552.57C1375.16,1552.18 1372.38,1551.42 1370.07,1550.75C1368.8,1550.38 1367.82,1549.93 1367.01,1550.11C1356.73,1552.45 1343.66,1557.25 1331.52,1560.75C1325.76,1562.41 1320.2,1563.75 1315.23,1564.53C1306.88,1565.84 1298.26,1566.19 1289.69,1565.38C1284.01,1564.85 1278.38,1563.73 1272.87,1562.24C1258.87,1558.44 1245.7,1551.79 1234.8,1542.51C1227.12,1535.88 1220.72,1528.31 1215.46,1519.97C1211.65,1522.39 1206.85,1523.88 1201.71,1524.08C1194.3,1524.36 1186.38,1522.19 1180.71,1517.13C1176.81,1513.65 1171.84,1504.41 1167.61,1493.77C1162.17,1480.08 1157.54,1464.21 1156.68,1457.6C1155.24,1446.4 1162.61,1438.19 1171.99,1434.88C1174.28,1434.07 1176.66,1433.56 1179.02,1433.37C1178.93,1433.04 1178.87,1432.71 1178.82,1432.38L1178.76,1432.13C1178.36,1430.47 1177.45,1427.03 1176.21,1422.29C1170.28,1399.61 1157.01,1348.14 1154.75,1320.24C1153.37,1303.24 1164.64,1281.53 1184.51,1261.37C1190.32,1255.47 1196.84,1249.67 1203.92,1244.14C1202.56,1242.18 1201.77,1239.81 1201.77,1237.26C1201.77,1230.58 1207.19,1225.16 1213.86,1225.16C1217.93,1225.16 1221.54,1227.18 1223.73,1230.26ZM1380.06,1430.41C1383.97,1425.67 1387.42,1420.73 1390.5,1415.67C1393.79,1410.28 1396.58,1404.75 1399.01,1399.15C1401.08,1394.37 1402.82,1389.54 1404.35,1384.71C1405.93,1379.75 1407.27,1374.81 1408.32,1369.89C1411.79,1353.71 1412.05,1337.89 1409.86,1324.22C1408.05,1312.95 1404.75,1303.13 1399.78,1295.98C1399.6,1295.74 1399.43,1295.42 1399.28,1295.05C1390.18,1294.04 1379.52,1294 1367.91,1295.07C1364,1295.43 1359.98,1295.92 1355.87,1296.56C1361.16,1304.94 1363.83,1314.2 1364.14,1324.04C1364.27,1328.41 1363.85,1332.88 1363.03,1337.4C1361.91,1343.65 1359.97,1350 1357.38,1356.37C1355,1362.21 1352.08,1368.07 1348.67,1373.87C1345.48,1379.3 1341.88,1384.7 1337.94,1389.98C1326.69,1405.04 1312.84,1419.24 1298.55,1431.79C1298.37,1431.96 1298.08,1431.96 1297.9,1431.78C1297.73,1431.59 1297.73,1431.3 1297.92,1431.13C1310.84,1417.52 1323.02,1402.22 1332.91,1386.52C1334.93,1383.31 1336.85,1380.09 1338.68,1376.87C1343.15,1369.04 1346.95,1361.19 1349.85,1353.43C1352.06,1347.51 1353.72,1341.64 1354.77,1335.9C1355.51,1331.88 1355.92,1327.92 1356.05,1324.03C1356.36,1314.73 1354.86,1305.8 1350.4,1297.49C1342.23,1298.97 1333.77,1301 1325.16,1303.61C1317.17,1306.02 1309.05,1308.91 1300.95,1312.39C1301.87,1313.52 1302.74,1314.79 1303.51,1316.18C1304.48,1317.94 1305.24,1319.86 1305.88,1321.77C1306.16,1323 1306.42,1324.22 1306.52,1325.4C1306.64,1326.72 1306.62,1327.97 1306.5,1329.13C1306.29,1331.1 1305.81,1332.74 1305.03,1333.94C1304.92,1334.16 1304.65,1334.26 1304.43,1334.15C1304.2,1334.05 1304.11,1333.78 1304.21,1333.55C1304.61,1332.36 1304.57,1330.86 1304.37,1329.15C1304.24,1328.1 1304,1327 1303.74,1325.83C1303.51,1324.77 1303.26,1323.66 1302.93,1322.55C1302.51,1320.33 1301.85,1318.1 1301.08,1316.01C1300.67,1314.91 1300.27,1313.86 1299.81,1312.88C1294.8,1315.07 1289.8,1317.48 1284.84,1320.15C1260.08,1333.14 1242.46,1348.78 1228.95,1364.82C1212.61,1384.22 1202.24,1404.23 1192.95,1421.14C1193.87,1424.35 1194.54,1426.72 1194.89,1428.02C1195.22,1429.27 1195.33,1430.41 1195.27,1431.42C1200.4,1446.56 1205.03,1462.73 1210.99,1478.2C1210.79,1473.7 1210.87,1468.7 1211.39,1463.26C1212.76,1450.3 1217.08,1435.81 1221.89,1424.03C1222.78,1421.86 1223.68,1419.79 1224.65,1417.87C1225.74,1415.71 1226.88,1413.76 1227.97,1411.98C1229.02,1410.27 1230,1408.77 1230.95,1407.45C1233.85,1403.43 1236.42,1400.53 1236.89,1400.59C1237.36,1400.65 1237.69,1401.08 1237.63,1401.54C1237.63,1401.58 1236.67,1405.1 1234.71,1410.84C1233.85,1413.38 1232.8,1416.32 1231.5,1419.55C1230.54,1421.97 1229.39,1424.5 1228.22,1427.17C1225.77,1432.73 1223.08,1438.77 1220.81,1445.01C1218.53,1451.29 1216.54,1457.69 1215.38,1463.84C1213.89,1471.51 1213.44,1478.35 1213.51,1484.15L1213.51,1484.51C1214.81,1487.63 1216.17,1490.7 1217.62,1493.72C1219,1496.6 1220.49,1499.39 1221.98,1502.18C1227.8,1513.07 1234.72,1523.18 1244.35,1531.33C1253.61,1539.27 1264.84,1544.88 1276.74,1548.22C1281.52,1549.56 1286.41,1550.5 1291.32,1551.16C1298.79,1552.17 1306.32,1552.57 1313.69,1551.92C1318.26,1551.52 1323.38,1550.62 1328.73,1549.5C1341.26,1546.88 1354.87,1543.19 1365.45,1541.67C1366.74,1541.48 1368.19,1541.56 1369.82,1542.02C1372.17,1542.68 1375.2,1544.34 1379.4,1544.8C1381.53,1545.04 1383.98,1544.82 1386.79,1544.13C1389.46,1543.47 1391.46,1542.32 1393.02,1541.1C1395.69,1539 1397.02,1536.54 1397.9,1535.34C1398.31,1534.78 1399.95,1533.61 1402.9,1532.61C1407.08,1531.18 1415.86,1528.31 1423.67,1521.34C1428.99,1516.59 1433.73,1509.77 1436.08,1500.02C1436.38,1498.94 1436.59,1497.86 1436.86,1496.8C1439.61,1485.96 1439.74,1475.74 1437.56,1465.91C1435.9,1458.45 1433.58,1451.3 1430.88,1444.77C1425.39,1431.55 1419.8,1420.4 1421.82,1410.75C1424.78,1395.56 1426.73,1382.2 1428.59,1370.28C1430.11,1360.61 1431.56,1351.93 1431.87,1343.77C1432.47,1328.33 1430.08,1315.01 1422.87,1301.7C1418.79,1299.26 1413.2,1297.38 1406.46,1296.11C1411.23,1303.22 1414.96,1312.39 1417.07,1322.92C1419.96,1337.38 1419.89,1354.36 1416.15,1371.58C1415.01,1376.8 1413.54,1382.05 1411.61,1387.22C1409.74,1392.23 1407.46,1397.16 1404.81,1401.99C1401.75,1407.58 1398.19,1413 1394.1,1418.18C1388.31,1425.51 1381.52,1432.29 1373.65,1438.41C1373.53,1438.52 1373.34,1438.51 1373.24,1438.39C1373.14,1438.28 1373.14,1438.12 1373.23,1438.01C1373.23,1437.96 1373.24,1437.91 1373.28,1437.87C1374.15,1435.81 1374.39,1433.6 1375.02,1431.18C1375.57,1429.05 1376.18,1426.89 1376.84,1424.79C1377.25,1423.46 1377.78,1422.21 1378.25,1420.99C1379.3,1418.24 1380.24,1415.84 1380.88,1414C1380.42,1414.84 1379.95,1415.67 1379.44,1416.48C1378.51,1417.97 1377.52,1419.38 1376.44,1420.72C1375.35,1422.09 1374.18,1423.38 1372.93,1424.57C1371.67,1425.77 1370.31,1426.86 1368.9,1427.88C1366.67,1429.52 1364.3,1430.96 1361.82,1432.23C1358.21,1434.09 1354.37,1435.55 1350.31,1436.71C1350.21,1436.75 1350.11,1436.7 1350.07,1436.6C1350.03,1436.5 1350.08,1436.39 1350.18,1436.36C1355.26,1434.13 1359.81,1431.33 1364.03,1428.13C1365.94,1426.68 1367.74,1425.12 1369.54,1423.54C1370.73,1422.49 1371.91,1421.43 1373.09,1420.34C1374.56,1418.99 1376.01,1417.63 1377.44,1416.19C1378.85,1414.77 1380.24,1413.37 1381.58,1411.84C1381.59,1411.72 1381.69,1411.63 1381.82,1411.64C1381.94,1411.64 1382.04,1411.75 1382.03,1411.88C1382.24,1413.83 1382.62,1417.48 1382.26,1421.9C1382.15,1423.29 1381.99,1424.73 1381.6,1426.16C1381.22,1427.6 1380.7,1429.04 1380.06,1430.41ZM1362.27,1518.31C1361.82,1519.83 1361.25,1521.33 1360.53,1522.78C1360.04,1523.78 1359.47,1524.75 1358.82,1525.66C1356.99,1528.21 1354.65,1530.46 1351.93,1532.27C1351.1,1532.82 1350.24,1533.33 1349.32,1533.76C1347.27,1534.71 1345.07,1535.23 1342.71,1535.78C1341.41,1536.09 1340.09,1536.44 1338.69,1536.65C1338.55,1536.68 1338.41,1536.59 1338.39,1536.45C1338.36,1536.31 1338.45,1536.17 1338.59,1536.14C1339.92,1535.79 1341.21,1535.42 1342.4,1534.88C1344.47,1533.93 1346.14,1532.59 1347.82,1531.29C1348.54,1530.73 1349.23,1530.16 1349.91,1529.58C1352.13,1527.71 1354,1525.59 1355.66,1523.36C1356.26,1522.55 1356.86,1521.76 1357.43,1520.95C1359.83,1517.51 1361.84,1513.87 1362.8,1509.96C1363.35,1507.74 1363.53,1505.49 1363.56,1503.3C1363.55,1503.16 1363.66,1503.04 1363.81,1503.04C1363.95,1503.04 1364.07,1503.15 1364.07,1503.29C1364.21,1505.52 1364.04,1507.81 1363.81,1510.13C1363.56,1512.53 1363.18,1514.96 1362.55,1517.33C1364.58,1518.06 1367.41,1518.68 1370.69,1519.26C1372.65,1519.61 1374.72,1519.88 1376.87,1520.17C1378.91,1520.44 1380.97,1520.65 1383,1520.86C1384.37,1521.01 1385.72,1521.14 1387.03,1521.28C1387.51,1521.34 1387.98,1521.39 1388.44,1521.45C1388.38,1520.02 1388.3,1518.25 1388.24,1516.46C1388.14,1513.89 1388.09,1511.41 1388.04,1509.86C1388.02,1509.33 1387.92,1508.32 1387.97,1508.17C1388.02,1507.97 1388.19,1507.94 1388.29,1507.92C1388.39,1507.91 1388.6,1507.92 1388.72,1508.13C1388.74,1508.16 1388.77,1508.23 1388.82,1508.35C1388.91,1508.56 1389.08,1508.99 1389.31,1509.61C1389.84,1511.08 1390.68,1513.44 1391.45,1515.9C1392.22,1518.34 1392.89,1520.76 1393.28,1522.31C1393.48,1523.14 1393.56,1523.75 1393.59,1524.04C1393.84,1526.44 1391.48,1526.76 1391.06,1526.8C1389.07,1526.91 1386.91,1526.95 1384.68,1526.72C1383.76,1526.62 1382.82,1526.46 1381.89,1526.27C1379.75,1525.83 1377.62,1525.27 1375.56,1524.58C1370.05,1522.73 1365.2,1520.3 1362.27,1518.31ZM1195.75,1466.36C1193.09,1470 1191.11,1474.82 1191.62,1479.87C1191.88,1482.53 1192.7,1485.25 1194.53,1487.82C1196.04,1489.96 1198.21,1491.94 1201.03,1493.81C1201.23,1493.93 1201.29,1494.18 1201.17,1494.38C1201.05,1494.58 1200.79,1494.64 1200.6,1494.52C1197.5,1492.8 1195.17,1490.81 1193.34,1488.77C1190.96,1486.11 1189.51,1483.29 1188.75,1480.38C1187.51,1475.69 1188.08,1470.87 1189.66,1466.66C1190.04,1465.66 1190.5,1464.7 1191,1463.79C1190.49,1463.46 1189.96,1463.17 1189.43,1462.9C1186.24,1461.25 1182.85,1460.5 1179.52,1461.05C1176.98,1461.48 1174.51,1462.41 1172.43,1464.09C1170.89,1465.34 1169.59,1466.96 1168.55,1468.86C1170.73,1475.32 1173.67,1482.92 1176.79,1489.9C1180.6,1498.45 1184.55,1506.09 1187.85,1508.8C1191.47,1511.77 1196.46,1512.73 1201.02,1512.36C1204.34,1512.1 1207.57,1511.16 1209.56,1509.33C1209.45,1509.09 1209.33,1508.86 1209.22,1508.63C1207.73,1505.5 1206.43,1502.28 1205.21,1499C1201.27,1488.48 1198.33,1477.43 1195.75,1466.36ZM1365.92,1492.69C1365.38,1492.58 1365.07,1492.52 1365.07,1492.52C1364.79,1492.52 1364.56,1492.29 1364.56,1492.01C1364.56,1491.73 1364.79,1491.51 1365.07,1491.51C1365.08,1491.5 1369.69,1491.13 1374.41,1490.63C1376.01,1490.45 1377.57,1490.23 1378.99,1490.08C1380.74,1489.89 1382.17,1489.81 1382.79,1489.54C1383.28,1489.34 1383.73,1489 1384.02,1488.42C1384.33,1487.82 1384.57,1487.06 1384.62,1486.07L1385.64,1458.32C1385.63,1458.04 1385.86,1457.81 1386.13,1457.8C1386.41,1457.8 1386.64,1458.02 1386.65,1458.29L1388.95,1486.06C1389.07,1488.38 1388.55,1490.09 1387.77,1491.33C1387.43,1491.88 1387.03,1492.34 1386.59,1492.72C1386.53,1495.38 1385.92,1500.58 1382.03,1499.7C1377.64,1498.71 1368.48,1494.02 1365.92,1492.69ZM1315.44,1470.16C1317.12,1467.93 1319.79,1466.49 1322.8,1466.49C1327.88,1466.49 1332,1470.62 1332,1475.7C1332,1480.78 1327.88,1484.9 1322.8,1484.9C1317.82,1484.9 1313.76,1480.95 1313.6,1476.01C1314.32,1477.6 1315.92,1478.71 1317.78,1478.71C1320.32,1478.71 1322.38,1476.65 1322.38,1474.12C1322.38,1471.58 1320.32,1469.52 1317.78,1469.52C1316.93,1469.52 1316.13,1469.76 1315.44,1470.16ZM1396.56,1456.99C1398.15,1454.87 1400.68,1453.51 1403.52,1453.51C1408.33,1453.51 1412.23,1457.41 1412.23,1462.22C1412.23,1467.03 1408.33,1470.93 1403.52,1470.93C1398.81,1470.93 1394.97,1467.19 1394.81,1462.52C1395.5,1464.03 1397.01,1465.07 1398.77,1465.07C1401.17,1465.07 1403.12,1463.12 1403.12,1460.73C1403.12,1458.33 1401.17,1456.38 1398.77,1456.38C1397.96,1456.38 1397.21,1456.6 1396.56,1456.99ZM1194.12,1459.18C1192.92,1453.76 1191.77,1448.36 1190.59,1443.03C1186.78,1439.49 1180.15,1439.59 1174.6,1441.81C1168.73,1444.16 1163.81,1449.27 1165.02,1456.35C1165.45,1458.88 1166.56,1462.85 1168.1,1467.51C1168.99,1465.78 1170.1,1464.26 1171.34,1462.92C1173.43,1460.66 1175.91,1458.98 1178.69,1457.95C1182.75,1456.46 1187.3,1456.37 1191.61,1457.97C1192.47,1458.29 1193.31,1458.7 1194.12,1459.18ZM1317.69,1440.5C1323.28,1438.63 1328.63,1436.46 1333.69,1433.8C1337.13,1431.99 1340.45,1429.98 1343.58,1427.72C1346.72,1425.46 1349.66,1422.94 1352.48,1420.26C1356.61,1416.32 1360.39,1411.96 1363.96,1407.27C1364.03,1407.17 1364.02,1407.03 1363.93,1406.96C1363.83,1406.88 1363.7,1406.89 1363.62,1406.99C1359.7,1411.3 1355.52,1415.18 1351.18,1418.8C1348.25,1421.24 1345.21,1423.5 1342.13,1425.7C1339.06,1427.91 1335.93,1430.04 1332.68,1432.03C1327.86,1434.99 1322.87,1437.74 1317.54,1440.09C1317.42,1440.13 1317.37,1440.26 1317.41,1440.37C1317.45,1440.49 1317.58,1440.54 1317.69,1440.5ZM1307.11,1434.44C1310.62,1433.38 1313.98,1432.15 1317.15,1430.56C1319.32,1429.47 1321.4,1428.26 1323.35,1426.85C1325.3,1425.44 1327.1,1423.84 1328.82,1422.13C1331.34,1419.63 1333.6,1416.85 1335.73,1413.88C1335.81,1413.78 1335.8,1413.64 1335.7,1413.57C1335.61,1413.49 1335.47,1413.5 1335.39,1413.6C1332.9,1416.2 1330.25,1418.49 1327.52,1420.67C1325.69,1422.13 1323.8,1423.48 1321.9,1424.83C1320.01,1426.18 1318.12,1427.53 1316.15,1428.79C1313.21,1430.68 1310.2,1432.48 1306.95,1434.03C1306.84,1434.08 1306.78,1434.2 1306.82,1434.32C1306.87,1434.43 1307,1434.49 1307.11,1434.44ZM1255.9,1409.17C1263.62,1399.55 1270.48,1389.31 1276.39,1379.02C1278.88,1374.69 1281.13,1370.37 1283.25,1366.1C1284.71,1363.16 1286.11,1360.27 1287.4,1357.4C1288.52,1354.92 1289.6,1352.49 1290.57,1350.06C1292.1,1346.21 1293.4,1342.46 1294.35,1338.69C1296.1,1331.81 1296.89,1325.17 1295.97,1318.56C1295.91,1318.33 1296.05,1318.11 1296.27,1318.05C1296.49,1317.99 1296.72,1318.12 1296.78,1318.35C1299.78,1326.24 1300.69,1334.8 1299.53,1343.89C1298.82,1349.42 1297.31,1355.06 1295.1,1360.68C1293.86,1363.82 1292.34,1366.94 1290.61,1370C1288.15,1374.37 1285.24,1378.61 1282.08,1382.8C1279.06,1386.81 1275.79,1390.7 1272.29,1394.51C1267.2,1400.05 1261.72,1405.29 1256.02,1410.34C1255.86,1410.51 1255.6,1410.51 1255.43,1410.35C1255.27,1410.19 1255.26,1409.93 1255.42,1409.76L1255.51,1409.65C1256.48,1405.67 1256.57,1402.27 1256.24,1399.22C1256.03,1397.18 1255.56,1395.37 1255.02,1393.65C1255,1393.6 1254.99,1393.55 1254.97,1393.5C1254.89,1394.59 1254.72,1395.74 1254.45,1396.91C1254.08,1398.61 1253.47,1400.34 1252.79,1402.12C1251.49,1405.22 1249.87,1408.39 1247.61,1411.37C1245.59,1414.04 1243.18,1416.51 1240.19,1418.68C1239.92,1418.93 1239.49,1418.91 1239.23,1418.63C1238.98,1418.36 1239,1417.92 1239.27,1417.67C1241.53,1415.08 1243.17,1412.31 1244.49,1409.49C1245.91,1406.45 1246.81,1403.4 1247.41,1400.46C1247.79,1398.81 1247.98,1397.21 1248.24,1395.69C1248.42,1394.58 1248.61,1393.52 1248.8,1392.52C1249.09,1391.04 1249.4,1389.72 1249.66,1388.52C1250.05,1386.74 1250.45,1385.42 1250.62,1384.44C1250.57,1383.53 1251.27,1382.76 1252.18,1382.7C1252.23,1382.67 1252.27,1382.64 1252.33,1382.61C1252.71,1382.41 1253.17,1382.56 1253.37,1382.94C1253.91,1383.6 1254.45,1384.23 1255.01,1384.96C1255.36,1385.42 1255.68,1385.88 1256.01,1386.39C1256.52,1387.19 1256.99,1388.05 1257.4,1388.97C1257.69,1389.63 1257.95,1390.33 1258.15,1391.06C1258.6,1392.67 1258.86,1394.39 1258.92,1396.23C1258.97,1397.65 1258.91,1399.12 1258.66,1400.66C1258.25,1403.32 1257.39,1406.12 1255.9,1409.17ZM1240.43,1340.42C1240.47,1340.36 1240.52,1340.31 1240.57,1340.26C1267.54,1312.96 1316.58,1281.41 1366.09,1262.19C1379.93,1256.81 1393.81,1252.43 1407.27,1249.34C1388.06,1223.41 1367,1211.09 1345.26,1207.26C1319.66,1202.74 1293.25,1209.93 1268.12,1219.88C1239.16,1231.36 1212.26,1250.21 1193.57,1270.09C1177.45,1287.23 1167.23,1304.85 1168.7,1318.95C1171.36,1344.44 1184.04,1389.94 1190.79,1413.61C1198.97,1397.13 1208.33,1378.28 1222.82,1359.83C1227.99,1353.26 1233.8,1346.75 1240.43,1340.42ZM1441.7,1348.41C1450.55,1344.82 1466.38,1337.98 1480.57,1329.95C1490.7,1324.22 1500.03,1317.99 1504.7,1311.59C1512.63,1300.97 1508.9,1287.61 1499.29,1276.77C1490.99,1267.41 1478.25,1259.72 1462.86,1257.05C1430.49,1251.12 1387.24,1261.7 1346.26,1278.83C1329.79,1285.71 1313.69,1293.67 1298.8,1302.13C1304.17,1299.81 1309.56,1297.75 1314.92,1295.97C1327.6,1291.74 1340.14,1288.96 1352.02,1287.32C1365.87,1285.4 1378.83,1285.07 1390.15,1285.95C1406.79,1287.25 1419.9,1290.33 1427,1296.31C1427.93,1297.09 1428.72,1298.73 1429.15,1299.42C1437.71,1313.13 1441.35,1327.26 1441.68,1343.87C1441.71,1345.36 1441.72,1346.87 1441.7,1348.41Z"/>
            </g>
        </g>
    </g>
</svg>
