<?xml version="1.0" encoding="UTF-8" standalone="no"?>
<svg
   xmlns:dc="http://purl.org/dc/elements/1.1/"
   xmlns:cc="http://creativecommons.org/ns#"
   xmlns:rdf="http://www.w3.org/1999/02/22-rdf-syntax-ns#"
   xmlns:svg="http://www.w3.org/2000/svg"
   xmlns="http://www.w3.org/2000/svg"
   xmlns:sodipodi="http://sodipodi.sourceforge.net/DTD/sodipodi-0.dtd"
   xmlns:inkscape="http://www.inkscape.org/namespaces/inkscape"
   width="1500"
   height="1500"
   viewBox="0 0 1500 1500"
   version="1.1"
   xml:space="preserve"
   style="clip-rule:evenodd;fill-rule:evenodd;stroke-linejoin:round;stroke-miterlimit:2"
   id="svg80"
   sodipodi:docname="luIDS_logo_colorete.svg"
   inkscape:version="1.0.1 (3bc2e813f5, 2020-09-07)"><metadata
   id="metadata86"><rdf:RDF><cc:Work
       rdf:about=""><dc:format>image/svg+xml</dc:format><dc:type
         rdf:resource="http://purl.org/dc/dcmitype/StillImage" /><dc:title></dc:title></cc:Work></rdf:RDF></metadata><defs
   id="defs84">
        
    
            
            
            
            
            
            
            
            
            
            
            
        </defs><sodipodi:namedview
   pagecolor="#ffffff"
   bordercolor="#666666"
   borderopacity="1"
   objecttolerance="10"
   gridtolerance="10"
   guidetolerance="10"
   inkscape:pageopacity="0"
   inkscape:pageshadow="2"
   inkscape:window-width="1061"
   inkscape:window-height="873"
   id="namedview82"
   showgrid="false"
   inkscape:zoom="0.20381984"
   inkscape:cx="1240.5"
   inkscape:cy="531.20559"
   inkscape:window-x="718"
   inkscape:window-y="42"
   inkscape:window-maximized="0"
   inkscape:current-layer="svg80" />
    <g
   id="g186"
   transform="translate(-484.28988,-681.14534)"><g
     transform="matrix(3.9223547,0,0,3.9223547,-4006.6619,-3983.136)"
     id="g4">
                <path
   d="m 1240.93,1340.79 0.08,-0.1 c 26.92,-27.24 75.89,-58.73 125.31,-77.92 13.81,-5.36 27.66,-9.74 41.09,-12.82 0.2,-0.05 0.37,-0.19 0.44,-0.39 0.08,-0.2 0.04,-0.42 -0.08,-0.59 -19.33,-26.09 -40.53,-38.47 -62.4,-42.33 -25.72,-4.54 -52.24,2.66 -77.48,12.66 -29.05,11.52 -56.02,30.42 -74.77,50.36 -16.27,17.3 -26.52,35.13 -25.04,49.35 2.66,25.53 15.35,71.08 22.11,94.77 0.07,0.25 0.29,0.43 0.54,0.45 0.26,0.03 0.51,-0.11 0.62,-0.34 8.16,-16.45 17.5,-35.26 31.97,-53.67 5.14,-6.55 10.94,-13.04 17.54,-19.35 z"
   style="fill:#85cbd3"
   id="path2" />
            </g><g
     transform="matrix(3.9223547,0,0,3.9223547,-5110.8167,-6340.7488)"
     id="g8">
                <path
   d="m 1449.75,2069.19 c -0.07,0.01 -0.13,0.02 -0.2,0.01 -0.25,-0.02 -0.47,-0.18 -0.55,-0.42 -1.55,-4.71 -2.66,-8.71 -3.1,-11.26 -1.27,-7.39 3.83,-12.76 9.97,-15.22 5.78,-2.31 12.67,-2.35 16.65,1.34 0.09,0.09 0.16,0.2 0.18,0.33 1.18,5.32 2.33,10.72 3.53,16.14 0.06,0.25 -0.04,0.5 -0.24,0.65 -0.2,0.14 -0.47,0.15 -0.69,0.03 -0.78,-0.47 -1.58,-0.86 -2.41,-1.17 -4.17,-1.54 -8.56,-1.46 -12.48,-0.01 -2.69,0.99 -5.09,2.62 -7.11,4.81 -0.72,0.77 -1.39,1.61 -2,2.51 0.68,-0.84 1.43,-1.59 2.24,-2.25 2.16,-1.76 4.73,-2.74 7.37,-3.18 3.46,-0.57 6.99,0.2 10.31,1.91 0.5,0.26 1,0.53 1.49,0.84 1.5,0.19 3.47,1.05 5,2.76 l 0.15,0.27 c 2.57,11.05 5.5,22.07 9.43,32.57 1.22,3.26 2.51,6.47 4,9.58 0.11,0.23 0.22,0.46 0.33,0.69 0.12,0.25 0.07,0.55 -0.14,0.73 -2.07,1.92 -5.44,2.92 -8.91,3.2 -4.72,0.38 -9.87,-0.63 -13.62,-3.7 -3.34,-2.75 -7.37,-10.47 -11.24,-19.13 -3.12,-7 -6.07,-14.62 -8.26,-21.09 -0.05,-0.17 -0.04,-0.35 0.05,-0.5 0.08,-0.15 0.16,-0.3 0.25,-0.44 z"
   style="fill:#f7c2b5"
   id="path6" />
            </g><g
     transform="matrix(3.9223547,0,0,3.9223547,-4006.6619,-3983.136)"
     id="g12">
                <path
   d="m 1212.91,1484.34 c -2.41,-5.2 -1.31,-2.81 -2.51,-5.91 -5.96,-15.48 -10.59,-31.66 -15.72,-46.81 -0.02,-0.07 -0.04,-0.15 -0.03,-0.23 0.05,-0.96 -0.05,-2.03 -0.37,-3.21 -0.34,-1.3 -1.02,-3.66 -1.93,-6.87 l 0.05,-0.47 c 9.31,-16.95 19.7,-36.99 36.07,-56.43 13.56,-16.09 31.24,-31.78 56.07,-44.81 4.98,-2.68 19.75,-12 40.49,-16.6 4.11,-0.92 12.91,-4.52 21.5,-6.27 9.75,-1.99 19.24,-2.09 21.33,-2.28 11.65,-1.08 22.35,-1.03 31.49,-0.02 0.08,0.01 0.16,0.04 0.23,0.08 0.81,0.19 4.59,0.54 7,0.99 6.82,1.28 12.47,3.2 16.61,5.66 l 0.23,0.24 c 7.26,13.41 9.68,26.84 9.08,42.4 -0.32,8.17 -1.77,16.88 -3.29,26.58 -1.86,11.93 -3.82,25.29 -6.78,40.5 -0.99,4.72 -0.1,9.81 1.7,15.35 1.83,5.63 4.59,11.7 7.32,18.3 2.72,6.56 5.05,13.75 6.72,21.24 2.2,9.92 2.07,20.24 -0.71,31.18 -0.26,1.06 -0.48,2.14 -0.78,3.22 -2.39,9.9 -7.19,16.81 -12.6,21.64 -7.88,7.04 -16.75,9.95 -20.98,11.39 -2.75,0.94 -4.31,1.99 -4.69,2.51 -0.91,1.23 -2.27,3.73 -5.01,5.88 -1.61,1.27 -3.69,2.46 -6.47,3.14 -2.88,0.71 -5.4,0.93 -7.6,0.69 -4.24,-0.46 -7.3,-2.13 -9.68,-2.8 -1.53,-0.43 -2.89,-0.51 -4.11,-0.33 -10.57,1.52 -24.16,5.21 -36.69,7.82 -5.36,1.12 -10.51,2.03 -15.1,2.43 -7.42,0.65 -14.99,0.26 -22.51,-0.76 -4.94,-0.67 -9.86,-1.61 -14.67,-2.96 -11.99,-3.36 -23.3,-9.02 -32.62,-17.02 -9.69,-8.19 -16.66,-18.37 -22.52,-29.33 -1.49,-2.79 -2.99,-5.59 -4.37,-8.48 -1.45,-3.03 -2.82,-6.11 -4.13,-9.24 -0.03,-0.07 -0.04,-0.15 -0.04,-0.23 0,-0.07 0,-0.13 0.02,-0.18 z"
   style="fill:#f7c2b5"
   id="path10" />
            </g><g
     transform="matrix(3.9223547,0,0,3.9223547,-4006.6619,-3983.136)"
     id="g16">
                <path
   d="m 1441.08,1348.4 c 0,0.21 0.1,0.41 0.27,0.52 0.17,0.12 0.39,0.14 0.59,0.07 8.86,-3.59 24.72,-10.46 38.94,-18.5 10.22,-5.78 19.61,-12.08 24.33,-18.53 8.1,-10.85 4.37,-24.52 -5.45,-35.6 -8.38,-9.45 -21.24,-17.23 -36.8,-19.92 -32.45,-5.95 -75.84,4.63 -116.94,21.81 -16.49,6.9 -32.62,14.87 -47.53,23.34 -0.29,0.16 -0.4,0.52 -0.25,0.82 0.15,0.3 0.5,0.43 0.81,0.29 5.35,-2.31 10.72,-4.36 16.07,-6.14 12.64,-4.21 25.15,-6.99 36.99,-8.63 13.79,-1.9 26.71,-2.24 37.99,-1.36 16.48,1.29 29.46,4.3 36.5,10.22 0.88,0.73 1.61,2.31 2.02,2.96 8.5,13.61 12.11,27.64 12.44,44.13 0.03,1.48 0.03,2.99 0.02,4.52 z"
   style="fill:#3c9ba6"
   id="path14" />
            </g><g
     transform="matrix(3.489126,0,0,3.489126,-2370.1128,-5573.4266)"
     id="g54">
                <g
   transform="matrix(68.9108,-19.246,19.246,68.9108,1015.07,1878.93)"
   id="g48">
                    <path
   d="m 0.098,-0.721 c 0,-0.006 0.002,-0.011 0.005,-0.015 0.005,-0.004 0.01,-0.007 0.017,-0.007 h 0.148 c 0.006,0 0.011,0.002 0.016,0.006 0.005,0.004 0.007,0.01 0.007,0.016 v 0.544 h 0.275 c 0.006,0 0.011,0.002 0.016,0.006 0.004,0.004 0.006,0.009 0.006,0.016 v 0.132 c 0,0.006 -0.002,0.011 -0.006,0.016 C 0.578,-0.002 0.573,0 0.566,0 H 0.119 C 0.105,0 0.098,-0.007 0.098,-0.022 Z"
   style="fill:#3c9ba6;fill-rule:nonzero"
   id="path46" />
                </g>
                <g
   transform="matrix(68.9108,-19.246,19.246,68.9108,1015.07,1878.93)"
   id="g52">
                    <path
   d="m 0.374,-0.26 h 0.192 c 0.028,0 0.052,0.009 0.072,0.028 0.021,0.019 0.033,0.044 0.033,0.078 v 0.131 C 0.671,0.001 0.664,0.024 0.647,0.044 0.628,0.069 0.601,0.083 0.566,0.083 H 0.119 C 0.085,0.083 0.061,0.07 0.044,0.053 0.027,0.036 0.014,0.012 0.014,-0.022 v -0.699 c 0,-0.027 0.01,-0.051 0.028,-0.071 0.019,-0.021 0.045,-0.034 0.078,-0.034 h 0.148 c 0.025,0 0.048,0.008 0.069,0.025 0.024,0.021 0.037,0.047 0.037,0.081 z M 0.098,-0.72 c 0,-0.006 0.001,-0.012 0.006,-0.016 0.003,-0.004 0.009,-0.006 0.016,-0.006 h 0.148 c 0.006,0 0.011,0.001 0.016,0.006 0.005,0.004 0.007,0.009 0.007,0.016 v 0.543 h 0.275 c 0.006,0 0.011,0.002 0.016,0.006 0.004,0.004 0.006,0.009 0.006,0.017 v 0.131 c 0,0.006 -0.002,0.011 -0.006,0.016 C 0.578,-0.002 0.573,0 0.566,0 H 0.119 C 0.105,0 0.098,-0.007 0.098,-0.022 Z"
   id="path50" />
                </g>
            </g><g
     transform="matrix(3.9223547,0,0,3.9223547,-2938.2267,-6340.7488)"
     id="g58">
                <path
   d="m 1079.16,1894.26 c 0,0 15.91,21.95 7.54,48.71 -11.83,37.89 -56.2,86.38 -60.65,89.53 10.22,-2.04 22.41,-7.54 37.28,-17.72 -7.96,8.92 -17.52,15.75 -28.58,20.59 17.28,-2.19 35.8,-10.31 55.94,-26.12 -7.82,10.22 -21.66,20.87 -44.86,32.18 16.68,-2.44 36.16,-10.41 63.39,-28.01 -1.45,11.7 -4.75,19.14 -6.92,24.29 0,0 21.98,-17.2 31.03,-47.97 9.05,-30.78 10.06,-43.85 6.44,-62.76 -3.62,-18.91 -10.06,-33.39 -10.06,-33.39 z"
   style="fill:#ffe4ad"
   id="path56" />
            </g><g
     transform="matrix(3.9223547,0,0,3.9223547,-2938.2267,-6340.7488)"
     id="g62">
                <path
   d="m 938.888,2084.39 -21.04,-61.55 c 0,0 19.236,-38.13 35.756,-58.04 30.545,-36.82 73.496,-52.5 73.496,-52.5 0,0 2.44,2.69 5.97,13.82 0.93,2.93 -0.49,8.97 -0.49,8.97 -1.63,-7.01 -4.26,-12.47 -8.53,-15.44 0,0 1.77,32.18 -9.17,49.56 -10.94,17.38 -31.378,42 -31.378,42 4.434,-12 2.414,-20.02 -3.862,-25.43 0.16,12.15 -4.044,24.6 -12.397,34.01 0.984,-5.27 2.576,-12.58 -2.491,-17.29 0,0 -7.64,17.88 -14.56,32.52 -6.919,14.64 -11.304,49.37 -11.304,49.37 z"
   style="fill:#fbbf45"
   id="path60" />
            </g><g
     transform="matrix(3.9223547,0,0,3.9223547,-2938.2267,-6340.7488)"
     id="g66">
                <path
   d="m 1139.04,1967.87 c -1.34,6.28 -3.22,13.4 -5.71,21.87 -9.05,30.77 -31.03,47.97 -31.03,47.97 2.17,-5.15 5.47,-12.59 6.92,-24.29 -27.23,17.6 -46.71,25.57 -63.39,28.01 23.2,-11.31 37.04,-21.96 44.86,-32.18 -20.14,15.81 -38.66,23.93 -55.94,26.12 11.06,-4.84 20.62,-11.67 28.58,-20.59 -14.87,10.18 -27.06,15.68 -37.28,17.72 3.04,-2.16 24.79,-25.55 42,-52.25 l 3.18,-0.35 c 7.71,-1.41 15.17,-4.02 25.57,-9.71 1.75,3.64 2.73,7.01 3.25,10.2 6.2,-0.78 11.15,-5.07 14.85,-8.89 l 2.52,9.76 c 7,-3.03 12.77,-7.44 17.51,-13 z"
   style="fill:#fbbf45"
   id="path64" />
            </g><g
     transform="matrix(3.9223547,0,0,3.9223547,-2938.2267,-6340.7488)"
     id="g70">
                <path
   d="m 1079.82,1959.76 c 2.82,-5.71 5.19,-11.36 6.88,-16.79 8.37,-26.76 -7.54,-48.71 -7.54,-48.71 l 50.55,-0.67 c 0,0 6.44,14.48 10.06,33.39 1.38,7.21 2.09,13.58 1.93,20.4 -5.92,7.81 -12.76,13.84 -20.87,16.27 l -0.7,-7.97 c -4.23,3.43 -8.73,5.69 -13.51,6.76 -0.31,-2.97 -1.12,-6.24 -2.56,-9.89 -6.01,5.35 -14.9,8.25 -24.88,9.42 0,0 0.24,-0.81 0.64,-2.21 z"
   style="fill:#fbbf45"
   id="path68" />
            </g><g
     transform="matrix(3.9223547,0,0,3.9223547,-4006.6619,-3983.136)"
     id="g74">
                <path
   d="m 1223.73,1230.26 c 12.69,-7.94 26.46,-14.86 40.67,-20.11 26.98,-9.98 55.3,-16.72 82.44,-11.27 23.73,4.75 46.68,18.69 66.98,48.18 0.17,0.25 0.31,0.52 0.41,0.79 18.2,-3.6 35.45,-4.67 50.55,-2.43 12.84,1.98 24.26,6.85 33.32,13.45 7.13,5.2 12.82,11.46 16.66,18.11 7.98,13.81 8.33,29.19 -1.41,41.3 -5.75,7.02 -16.53,14.01 -28.56,19.76 -16.24,7.76 -34.49,13.58 -43.26,16.2 -0.29,5.67 -0.94,11.62 -2.09,17.89 -2.22,12.06 -6.34,25.2 -10.83,40.29 -2.32,8.2 1.3,18.36 6.19,29.65 1.69,3.92 3.68,7.88 5.57,12 2.79,6.07 5.47,12.34 7.36,19.03 2.17,7.68 3.42,15.73 2.48,24.31 -0.22,2.05 -0.7,4.09 -1.21,6.17 -3.87,12.47 -10.61,20.92 -17.94,26.63 -8.16,6.35 -16.86,9.33 -22.5,10.91 -1.83,0.51 -3.6,1.59 -4.28,1.43 -1.29,1.61 -3.17,3.81 -5.99,5.74 -2.48,1.7 -5.64,3.26 -9.76,4.01 -3.84,0.69 -7.12,0.6 -9.99,0.27 -3.38,-0.39 -6.16,-1.15 -8.47,-1.82 -1.27,-0.37 -2.25,-0.82 -3.06,-0.64 -10.28,2.34 -23.35,7.14 -35.49,10.64 -5.76,1.66 -11.32,3 -16.29,3.78 -8.35,1.31 -16.97,1.66 -25.54,0.85 -5.68,-0.53 -11.31,-1.65 -16.82,-3.14 -14,-3.8 -27.17,-10.45 -38.07,-19.73 -7.68,-6.63 -14.08,-14.2 -19.34,-22.54 -3.81,2.42 -8.61,3.91 -13.75,4.11 -7.41,0.28 -15.33,-1.89 -21,-6.95 -3.9,-3.48 -8.87,-12.72 -13.1,-23.36 -5.44,-13.69 -10.07,-29.56 -10.93,-36.17 -1.44,-11.2 5.93,-19.41 15.31,-22.72 2.29,-0.81 4.67,-1.32 7.03,-1.51 -0.09,-0.33 -0.15,-0.66 -0.2,-0.99 l -0.06,-0.25 c -0.4,-1.66 -1.31,-5.1 -2.55,-9.84 -5.93,-22.68 -19.2,-74.15 -21.46,-102.05 -1.38,-17 9.89,-38.71 29.76,-58.87 5.81,-5.9 12.33,-11.7 19.41,-17.23 -1.36,-1.96 -2.15,-4.33 -2.15,-6.88 0,-6.68 5.42,-12.1 12.09,-12.1 4.07,0 7.68,2.02 9.87,5.1 z m 156.33,200.15 c 3.91,-4.74 7.36,-9.68 10.44,-14.74 3.29,-5.39 6.08,-10.92 8.51,-16.52 2.07,-4.78 3.81,-9.61 5.34,-14.44 1.58,-4.96 2.92,-9.9 3.97,-14.82 3.47,-16.18 3.73,-32 1.54,-45.67 -1.81,-11.27 -5.11,-21.09 -10.08,-28.24 -0.18,-0.24 -0.35,-0.56 -0.5,-0.93 -9.1,-1.01 -19.76,-1.05 -31.37,0.02 -3.91,0.36 -7.93,0.85 -12.04,1.49 5.29,8.38 7.96,17.64 8.27,27.48 0.13,4.37 -0.29,8.84 -1.11,13.36 -1.12,6.25 -3.06,12.6 -5.65,18.97 -2.38,5.84 -5.3,11.7 -8.71,17.5 -3.19,5.43 -6.79,10.83 -10.73,16.11 -11.25,15.06 -25.1,29.26 -39.39,41.81 -0.18,0.17 -0.47,0.17 -0.65,-0.01 -0.17,-0.19 -0.17,-0.48 0.02,-0.65 12.92,-13.61 25.1,-28.91 34.99,-44.61 2.02,-3.21 3.94,-6.43 5.77,-9.65 4.47,-7.83 8.27,-15.68 11.17,-23.44 2.21,-5.92 3.87,-11.79 4.92,-17.53 0.74,-4.02 1.15,-7.98 1.28,-11.87 0.31,-9.3 -1.19,-18.23 -5.65,-26.54 -8.17,1.48 -16.63,3.51 -25.24,6.12 -7.99,2.41 -16.11,5.3 -24.21,8.78 0.92,1.13 1.79,2.4 2.56,3.79 0.97,1.76 1.73,3.68 2.37,5.59 0.28,1.23 0.54,2.45 0.64,3.63 0.12,1.32 0.1,2.57 -0.02,3.73 -0.21,1.97 -0.69,3.61 -1.47,4.81 -0.11,0.22 -0.38,0.32 -0.6,0.21 -0.23,-0.1 -0.32,-0.37 -0.22,-0.6 0.4,-1.19 0.36,-2.69 0.16,-4.4 -0.13,-1.05 -0.37,-2.15 -0.63,-3.32 -0.23,-1.06 -0.48,-2.17 -0.81,-3.28 -0.42,-2.22 -1.08,-4.45 -1.85,-6.54 -0.41,-1.1 -0.81,-2.15 -1.27,-3.13 -5.01,2.19 -10.01,4.6 -14.97,7.27 -24.76,12.99 -42.38,28.63 -55.89,44.67 -16.34,19.4 -26.71,39.41 -36,56.32 0.92,3.21 1.59,5.58 1.94,6.88 0.33,1.25 0.44,2.39 0.38,3.4 5.13,15.14 9.76,31.31 15.72,46.78 -0.2,-4.5 -0.12,-9.5 0.4,-14.94 1.37,-12.96 5.69,-27.45 10.5,-39.23 0.89,-2.17 1.79,-4.24 2.76,-6.16 1.09,-2.16 2.23,-4.11 3.32,-5.89 1.05,-1.71 2.03,-3.21 2.98,-4.53 2.9,-4.02 5.47,-6.92 5.94,-6.86 0.47,0.06 0.8,0.49 0.74,0.95 0,0.04 -0.96,3.56 -2.92,9.3 -0.86,2.54 -1.91,5.48 -3.21,8.71 -0.96,2.42 -2.11,4.95 -3.28,7.62 -2.45,5.56 -5.14,11.6 -7.41,17.84 -2.28,6.28 -4.27,12.68 -5.43,18.83 -1.49,7.67 -1.94,14.51 -1.87,20.31 v 0.36 c 1.3,3.12 2.66,6.19 4.11,9.21 1.38,2.88 2.87,5.67 4.36,8.46 5.82,10.89 12.74,21 22.37,29.15 9.26,7.94 20.49,13.55 32.39,16.89 4.78,1.34 9.67,2.28 14.58,2.94 7.47,1.01 15,1.41 22.37,0.76 4.57,-0.4 9.69,-1.3 15.04,-2.42 12.53,-2.62 26.14,-6.31 36.72,-7.83 1.29,-0.19 2.74,-0.11 4.37,0.35 2.35,0.66 5.38,2.32 9.58,2.78 2.13,0.24 4.58,0.02 7.39,-0.67 2.67,-0.66 4.67,-1.81 6.23,-3.03 2.67,-2.1 4,-4.56 4.88,-5.76 0.41,-0.56 2.05,-1.73 5,-2.73 4.18,-1.43 12.96,-4.3 20.77,-11.27 5.32,-4.75 10.06,-11.57 12.41,-21.32 0.3,-1.08 0.51,-2.16 0.78,-3.22 2.75,-10.84 2.88,-21.06 0.7,-30.89 -1.66,-7.46 -3.98,-14.61 -6.68,-21.14 -5.49,-13.22 -11.08,-24.37 -9.06,-34.02 2.96,-15.19 4.91,-28.55 6.77,-40.47 1.52,-9.67 2.97,-18.35 3.28,-26.51 0.6,-15.44 -1.79,-28.76 -9,-42.07 -4.08,-2.44 -9.67,-4.32 -16.41,-5.59 4.77,7.11 8.5,16.28 10.61,26.81 2.89,14.46 2.82,31.44 -0.92,48.66 -1.14,5.22 -2.61,10.47 -4.54,15.64 -1.87,5.01 -4.15,9.94 -6.8,14.77 -3.06,5.59 -6.62,11.01 -10.71,16.19 -5.79,7.33 -12.58,14.11 -20.45,20.23 -0.12,0.11 -0.31,0.1 -0.41,-0.02 -0.1,-0.11 -0.1,-0.27 -0.01,-0.38 0,-0.05 0.01,-0.1 0.05,-0.14 0.87,-2.06 1.11,-4.27 1.74,-6.69 0.55,-2.13 1.16,-4.29 1.82,-6.39 0.41,-1.33 0.94,-2.58 1.41,-3.8 1.05,-2.75 1.99,-5.15 2.63,-6.99 -0.46,0.84 -0.93,1.67 -1.44,2.48 -0.93,1.49 -1.92,2.9 -3,4.24 -1.09,1.37 -2.26,2.66 -3.51,3.85 -1.26,1.2 -2.62,2.29 -4.03,3.31 -2.23,1.64 -4.6,3.08 -7.08,4.35 -3.61,1.86 -7.45,3.32 -11.51,4.48 -0.1,0.04 -0.2,-0.01 -0.24,-0.11 -0.04,-0.1 0.01,-0.21 0.11,-0.24 5.08,-2.23 9.63,-5.03 13.85,-8.23 1.91,-1.45 3.71,-3.01 5.51,-4.59 1.19,-1.05 2.37,-2.11 3.55,-3.2 1.47,-1.35 2.92,-2.71 4.35,-4.15 1.41,-1.42 2.8,-2.82 4.14,-4.35 0.01,-0.12 0.11,-0.21 0.24,-0.2 0.12,0 0.22,0.11 0.21,0.24 0.21,1.95 0.59,5.6 0.23,10.02 -0.11,1.39 -0.27,2.83 -0.66,4.26 -0.38,1.44 -0.9,2.88 -1.54,4.25 z m -17.79,87.9 c -0.45,1.52 -1.02,3.02 -1.74,4.47 -0.49,1 -1.06,1.97 -1.71,2.88 -1.83,2.55 -4.17,4.8 -6.89,6.61 -0.83,0.55 -1.69,1.06 -2.61,1.49 -2.05,0.95 -4.25,1.47 -6.61,2.02 -1.3,0.31 -2.62,0.66 -4.02,0.87 -0.14,0.03 -0.28,-0.06 -0.3,-0.2 -0.03,-0.14 0.06,-0.28 0.2,-0.31 1.33,-0.35 2.62,-0.72 3.81,-1.26 2.07,-0.95 3.74,-2.29 5.42,-3.59 0.72,-0.56 1.41,-1.13 2.09,-1.71 2.22,-1.87 4.09,-3.99 5.75,-6.22 0.6,-0.81 1.2,-1.6 1.77,-2.41 2.4,-3.44 4.41,-7.08 5.37,-10.99 0.55,-2.22 0.73,-4.47 0.76,-6.66 -0.01,-0.14 0.1,-0.26 0.25,-0.26 0.14,0 0.26,0.11 0.26,0.25 0.14,2.23 -0.03,4.52 -0.26,6.84 -0.25,2.4 -0.63,4.83 -1.26,7.2 2.03,0.73 4.86,1.35 8.14,1.93 1.96,0.35 4.03,0.62 6.18,0.91 2.04,0.27 4.1,0.48 6.13,0.69 1.37,0.15 2.72,0.28 4.03,0.42 0.48,0.06 0.95,0.11 1.41,0.17 -0.06,-1.43 -0.14,-3.2 -0.2,-4.99 -0.1,-2.57 -0.15,-5.05 -0.2,-6.6 -0.02,-0.53 -0.12,-1.54 -0.07,-1.69 0.05,-0.2 0.22,-0.23 0.32,-0.25 0.1,-0.01 0.31,0 0.43,0.21 0.02,0.03 0.05,0.1 0.1,0.22 0.09,0.21 0.26,0.64 0.49,1.26 0.53,1.47 1.37,3.83 2.14,6.29 0.77,2.44 1.44,4.86 1.83,6.41 0.2,0.83 0.28,1.44 0.31,1.73 0.25,2.4 -2.11,2.72 -2.53,2.76 -1.99,0.11 -4.15,0.15 -6.38,-0.08 -0.92,-0.1 -1.86,-0.26 -2.79,-0.45 -2.14,-0.44 -4.27,-1 -6.33,-1.69 -5.51,-1.85 -10.36,-4.28 -13.29,-6.27 z m -166.52,-51.95 c -2.66,3.64 -4.64,8.46 -4.13,13.51 0.26,2.66 1.08,5.38 2.91,7.95 1.51,2.14 3.68,4.12 6.5,5.99 0.2,0.12 0.26,0.37 0.14,0.57 -0.12,0.2 -0.38,0.26 -0.57,0.14 -3.1,-1.72 -5.43,-3.71 -7.26,-5.75 -2.38,-2.66 -3.83,-5.48 -4.59,-8.39 -1.24,-4.69 -0.67,-9.51 0.91,-13.72 0.38,-1 0.84,-1.96 1.34,-2.87 -0.51,-0.33 -1.04,-0.62 -1.57,-0.89 -3.19,-1.65 -6.58,-2.4 -9.91,-1.85 -2.54,0.43 -5.01,1.36 -7.09,3.04 -1.54,1.25 -2.84,2.87 -3.88,4.77 2.18,6.46 5.12,14.06 8.24,21.04 3.81,8.55 7.76,16.19 11.06,18.9 3.62,2.97 8.61,3.93 13.17,3.56 3.32,-0.26 6.55,-1.2 8.54,-3.03 -0.11,-0.24 -0.23,-0.47 -0.34,-0.7 -1.49,-3.13 -2.79,-6.35 -4.01,-9.63 -3.94,-10.52 -6.88,-21.57 -9.46,-32.64 z m 170.17,26.33 c -0.54,-0.11 -0.85,-0.17 -0.85,-0.17 -0.28,0 -0.51,-0.23 -0.51,-0.51 0,-0.28 0.23,-0.5 0.51,-0.5 0.01,-0.01 4.62,-0.38 9.34,-0.88 1.6,-0.18 3.16,-0.4 4.58,-0.55 1.75,-0.19 3.18,-0.27 3.8,-0.54 0.49,-0.2 0.94,-0.54 1.23,-1.12 0.31,-0.6 0.55,-1.36 0.6,-2.35 l 1.02,-27.75 c -0.01,-0.28 0.22,-0.51 0.49,-0.52 0.28,0 0.51,0.22 0.52,0.49 l 2.3,27.77 c 0.12,2.32 -0.4,4.03 -1.18,5.27 -0.34,0.55 -0.74,1.01 -1.18,1.39 -0.06,2.66 -0.67,7.86 -4.56,6.98 -4.39,-0.99 -13.55,-5.68 -16.11,-7.01 z m -50.48,-22.53 c 1.68,-2.23 4.35,-3.67 7.36,-3.67 5.08,0 9.2,4.13 9.2,9.21 0,5.08 -4.12,9.2 -9.2,9.2 -4.98,0 -9.04,-3.95 -9.2,-8.89 0.72,1.59 2.32,2.7 4.18,2.7 2.54,0 4.6,-2.06 4.6,-4.59 0,-2.54 -2.06,-4.6 -4.6,-4.6 -0.85,0 -1.65,0.24 -2.34,0.64 z m 81.12,-13.17 c 1.59,-2.12 4.12,-3.48 6.96,-3.48 4.81,0 8.71,3.9 8.71,8.71 0,4.81 -3.9,8.71 -8.71,8.71 -4.71,0 -8.55,-3.74 -8.71,-8.41 0.69,1.51 2.2,2.55 3.96,2.55 2.4,0 4.35,-1.95 4.35,-4.34 0,-2.4 -1.95,-4.35 -4.35,-4.35 -0.81,0 -1.56,0.22 -2.21,0.61 z m -202.44,2.19 c -1.2,-5.42 -2.35,-10.82 -3.53,-16.15 -3.81,-3.54 -10.44,-3.44 -15.99,-1.22 -5.87,2.35 -10.79,7.46 -9.58,14.54 0.43,2.53 1.54,6.5 3.08,11.16 0.89,-1.73 2,-3.25 3.24,-4.59 2.09,-2.26 4.57,-3.94 7.35,-4.97 4.06,-1.49 8.61,-1.58 12.92,0.02 0.86,0.32 1.7,0.73 2.51,1.21 z m 123.57,-18.68 c 5.59,-1.87 10.94,-4.04 16,-6.7 3.44,-1.81 6.76,-3.82 9.89,-6.08 3.14,-2.26 6.08,-4.78 8.9,-7.46 4.13,-3.94 7.91,-8.3 11.48,-12.99 0.07,-0.1 0.06,-0.24 -0.03,-0.31 -0.1,-0.08 -0.23,-0.07 -0.31,0.03 -3.92,4.31 -8.1,8.19 -12.44,11.81 -2.93,2.44 -5.97,4.7 -9.05,6.9 -3.07,2.21 -6.2,4.34 -9.45,6.33 -4.82,2.96 -9.81,5.71 -15.14,8.06 -0.12,0.04 -0.17,0.17 -0.13,0.28 0.04,0.12 0.17,0.17 0.28,0.13 z m -10.58,-6.06 c 3.51,-1.06 6.87,-2.29 10.04,-3.88 2.17,-1.09 4.25,-2.3 6.2,-3.71 1.95,-1.41 3.75,-3.01 5.47,-4.72 2.52,-2.5 4.78,-5.28 6.91,-8.25 0.08,-0.1 0.07,-0.24 -0.03,-0.31 -0.09,-0.08 -0.23,-0.07 -0.31,0.03 -2.49,2.6 -5.14,4.89 -7.87,7.07 -1.83,1.46 -3.72,2.81 -5.62,4.16 -1.89,1.35 -3.78,2.7 -5.75,3.96 -2.94,1.89 -5.95,3.69 -9.2,5.24 -0.11,0.05 -0.17,0.17 -0.13,0.29 0.05,0.11 0.18,0.17 0.29,0.12 z m -51.21,-25.27 c 7.72,-9.62 14.58,-19.86 20.49,-30.15 2.49,-4.33 4.74,-8.65 6.86,-12.92 1.46,-2.94 2.86,-5.83 4.15,-8.7 1.12,-2.48 2.2,-4.91 3.17,-7.34 1.53,-3.85 2.83,-7.6 3.78,-11.37 1.75,-6.88 2.54,-13.52 1.62,-20.13 -0.06,-0.23 0.08,-0.45 0.3,-0.51 0.22,-0.06 0.45,0.07 0.51,0.3 3,7.89 3.91,16.45 2.75,25.54 -0.71,5.53 -2.22,11.17 -4.43,16.79 -1.24,3.14 -2.76,6.26 -4.49,9.32 -2.46,4.37 -5.37,8.61 -8.53,12.8 -3.02,4.01 -6.29,7.9 -9.79,11.71 -5.09,5.54 -10.57,10.78 -16.27,15.83 -0.16,0.17 -0.42,0.17 -0.59,0.01 -0.16,-0.16 -0.17,-0.42 -0.01,-0.59 l 0.09,-0.11 c 0.97,-3.98 1.06,-7.38 0.73,-10.43 -0.21,-2.04 -0.68,-3.85 -1.22,-5.57 -0.02,-0.05 -0.03,-0.1 -0.05,-0.15 -0.08,1.09 -0.25,2.24 -0.52,3.41 -0.37,1.7 -0.98,3.43 -1.66,5.21 -1.3,3.1 -2.92,6.27 -5.18,9.25 -2.02,2.67 -4.43,5.14 -7.42,7.31 -0.27,0.25 -0.7,0.23 -0.96,-0.05 -0.25,-0.27 -0.23,-0.71 0.04,-0.96 2.26,-2.59 3.9,-5.36 5.22,-8.18 1.42,-3.04 2.32,-6.09 2.92,-9.03 0.38,-1.65 0.57,-3.25 0.83,-4.77 0.18,-1.11 0.37,-2.17 0.56,-3.17 0.29,-1.48 0.6,-2.8 0.86,-4 0.39,-1.78 0.79,-3.1 0.96,-4.08 -0.05,-0.91 0.65,-1.68 1.56,-1.74 0.05,-0.03 0.09,-0.06 0.15,-0.09 0.38,-0.2 0.84,-0.05 1.04,0.33 0.54,0.66 1.08,1.29 1.64,2.02 0.35,0.46 0.67,0.92 1,1.43 0.51,0.8 0.98,1.66 1.39,2.58 0.29,0.66 0.55,1.36 0.75,2.09 0.45,1.61 0.71,3.33 0.77,5.17 0.05,1.42 -0.01,2.89 -0.26,4.43 -0.41,2.66 -1.27,5.46 -2.76,8.51 z m -15.47,-68.75 c 0.04,-0.06 0.09,-0.11 0.14,-0.16 26.97,-27.3 76.01,-58.85 125.52,-78.07 13.84,-5.38 27.72,-9.76 41.18,-12.85 -19.21,-25.93 -40.27,-38.25 -62.01,-42.08 -25.6,-4.52 -52.01,2.67 -77.14,12.62 -28.96,11.48 -55.86,30.33 -74.55,50.21 -16.12,17.14 -26.34,34.76 -24.87,48.86 2.66,25.49 15.34,70.99 22.09,94.66 8.18,-16.48 17.54,-35.33 32.03,-53.78 5.17,-6.57 10.98,-13.08 17.61,-19.41 z m 201.27,7.99 c 8.85,-3.59 24.68,-10.43 38.87,-18.46 10.13,-5.73 19.46,-11.96 24.13,-18.36 7.93,-10.62 4.2,-23.98 -5.41,-34.82 -8.3,-9.36 -21.04,-17.05 -36.43,-19.72 -32.37,-5.93 -75.62,4.65 -116.6,21.78 -16.47,6.88 -32.57,14.84 -47.46,23.3 5.37,-2.32 10.76,-4.38 16.12,-6.16 12.68,-4.23 25.22,-7.01 37.1,-8.65 13.85,-1.92 26.81,-2.25 38.13,-1.37 16.64,1.3 29.75,4.38 36.85,10.36 0.93,0.78 1.72,2.42 2.15,3.11 8.56,13.71 12.2,27.84 12.53,44.45 0.03,1.49 0.04,3 0.02,4.54 z"
   id="path72" />
            </g></g>
</svg>
